<?xml version="1.0" encoding="UTF-8"?>
<svg xmlns="http://www.w3.org/2000/svg"><defs>
<symbol id="NDLSemiLogo" viewBox="0 0 215 36"><g stroke="none" stroke-width="1" fill="none" fill-rule="evenodd"><path fill="#0090ba" d="M20.05722,10.02942 C20.4064754,9.53069249 21.0001598,9.26244526 21.6052632,9.32996029 C22.2103667,9.39747532 22.7303272,9.7899786 22.96107,10.35342 L24.93747,15.82254 L21.55815,25.18776 C21.5041776,25.3351819 21.4306179,25.4746729 21.33945,25.60248 C21.0357,26.03097 20.53998,26.31204 19.97784,26.31204 C19.3096122,26.3104979 18.7065527,25.9110067 18.44451,25.2963 L16.46001,19.8045 L19.83771,10.44333 C19.89441,10.27323 20.02563,10.07316  20.05722,10.0294L20.05722,10.0294M20.69469,8.92782 L20.69469,8.93349 C19.9771757,8.96403462 19.3498674,9.42666647 19.10871,10.10313 L9.9063,35.64486 L0,35.64486 L9.2016,10.10313 C9.45141764,9.40016553 10.1160666,8.930048 10.8621,8.92863 L20.69469,8.92782 Z M41.34645,0 L32.14728,25.53525 C31.8980657,26.2379612 31.2339925,26.7081302 30.4884,26.70975 L20.76597,26.70975 L20.76597,26.69436 C21.4407113,26.6241779 22.0155932,26.1736543 22.24503,25.53525 L31.4442,0 L41.34645,0 Z"></path><line stroke="#a7a9ac" stroke-linecap="square" x1="57.5" y1="3.5" x2="57.5" y2="35.5"></line><text x="67" y="23" fill="currentColor">Nasdaq Data Link</text></g></symbol>
<symbol id="GitHubLogo" viewBox="0 0 16 16"><path d="M8 0C3.58 0 0 3.582 0 8c0 3.535 2.292 6.533 5.47 7.59.4.075.547-.172.547-.385 0-.19-.007-.693-.01-1.36-2.226.483-2.695-1.073-2.695-1.073-.364-.924-.89-1.17-.89-1.17-.725-.496.056-.486.056-.486.803.056 1.225.824 1.225.824.714 1.223 1.873.87 2.33.665.072-.517.278-.87.507-1.07-1.777-.2-3.644-.888-3.644-3.953 0-.873.31-1.587.823-2.147-.083-.202-.358-1.015.077-2.117 0 0 .672-.215 2.2.82.638-.178 1.323-.266 2.003-.27.68.004 1.364.092 2.003.27 1.527-1.035 2.198-.82 2.198-.82.437 1.102.163 1.915.08 2.117.513.56.823 1.274.823 2.147 0 3.073-1.87 3.75-3.653 3.947.287.246.543.735.543 1.48 0 1.07-.01 1.933-.01 2.195 0 .215.144.463.55.385C13.71 14.53 16 11.534 16 8c0-4.418-3.582-8-8-8"></path></symbol>
<symbol id="ReactLogo" viewBox="0 0 600 600"><circle cx="299.529" cy="299.628" r="50.167"></circle><path fill="none" d="M299.529,197.628
c67.356,0,129.928,9.665,177.107,25.907c56.844,19.569,91.794,49.233,91.794,76.093c0,27.991-37.041,59.503-98.083,79.728
c-46.151,15.291-106.879,23.272-170.818,23.272c-65.554,0-127.63-7.492-174.29-23.441c-59.046-20.182-94.611-52.103-94.611-79.559
c0-26.642,33.37-56.076,89.415-75.616C167.398,207.503,231.515,197.628,299.529,197.628z"></path><path fill="none" d="M210.736,248.922
c33.649-58.348,73.281-107.724,110.92-140.48c45.35-39.466,88.507-54.923,111.775-41.505
c24.248,13.983,33.042,61.814,20.067,124.796c-9.81,47.618-33.234,104.212-65.176,159.601
c-32.749,56.788-70.25,106.819-107.377,139.272c-46.981,41.068-92.4,55.929-116.185,42.213
c-23.079-13.31-31.906-56.921-20.834-115.233C153.281,368.316,176.758,307.841,210.736,248.922z"></path><path fill="none" d="M210.821,351.482
c-33.746-58.292-56.731-117.287-66.312-166.255c-11.544-58.999-3.382-104.109,19.864-117.566
c24.224-14.024,70.055,2.244,118.14,44.94c36.356,32.28,73.688,80.837,105.723,136.173c32.844,56.733,57.461,114.209,67.036,162.582
c12.117,61.213,2.309,107.984-21.453,121.74c-23.057,13.348-65.249-0.784-110.239-39.499
C285.567,460.886,244.898,410.344,210.821,351.482z"></path></symbol>
<symbol id="HighchartsLogo" viewBox="0 0 425.197 141.732"><path d="M138.475,69.712h-17.02v9.77c0,1.037-0.813,1.851-1.849,1.851c-1.037,0-1.85-0.813-1.85-1.851V57.725
c0-1.037,0.813-1.852,1.85-1.852c1.036,0,1.849,0.813,1.849,1.852v8.436h17.02v-8.436c0-1.037,0.814-1.852,1.85-1.852
c1.036,0,1.85,0.813,1.85,1.852v21.754c0,1.037-0.814,1.851-1.85,1.851c-1.036,0-1.85-0.813-1.85-1.851V69.712z"></path><path d="M156.973,79.479c0,1.037-0.814,1.851-1.852,1.851s-1.852-0.813-1.852-1.851V57.725
c0-1.037,0.814-1.852,1.852-1.852s1.852,0.813,1.852,1.852V79.479z"></path><path d="M184.125,70.378c0-1.036,0.814-1.774,1.852-1.774c1.034,0,1.852,0.813,1.852,1.849v5.847
c0,0.444-0.226,1.109-0.595,1.479c-2.367,2.369-5.549,3.773-9.176,3.773c-7.178,0-12.949-5.771-12.949-12.948
c0-7.181,5.771-12.949,12.949-12.949c3.627,0,6.809,1.405,9.176,3.771c0.738,0.74,0.738,1.852,0,2.592
c-0.741,0.738-1.922,0.813-2.663,0.072c-1.702-1.699-3.923-2.736-6.513-2.736c-5.104,0-9.249,4.144-9.249,9.25
c0,5.104,4.146,9.25,9.249,9.25c2.367,0,4.441-0.813,6.067-2.222V70.378z"></path><path d="M218.162,69.712h-17.019v9.77c0,1.037-0.817,1.851-1.852,1.851c-1.037,0-1.849-0.813-1.849-1.851V57.725
c0-1.037,0.812-1.852,1.849-1.852c1.034,0,1.852,0.813,1.852,1.852v8.436h17.019v-8.436c0-1.037,0.813-1.852,1.849-1.852
c1.037,0,1.852,0.813,1.852,1.852v21.754c0,1.037-0.813,1.851-1.852,1.851c-1.033,0-1.849-0.813-1.849-1.851V69.712z"></path><path d="M242.948,81.552c-7.182,0-12.949-5.771-12.949-12.948c0-7.181,5.77-12.949,12.949-12.949
c3.627,0,6.809,1.405,9.176,3.771c0.738,0.74,0.738,1.852,0,2.592c-0.741,0.738-1.925,0.813-2.666,0.072
c-1.699-1.699-3.92-2.736-6.51-2.736c-5.106,0-9.249,4.144-9.249,9.25c0,5.104,4.143,9.25,9.249,9.25
c2.59,0,4.884-0.962,6.586-2.664c0.74-0.741,1.849-0.741,2.59,0c0.738,0.738,0.738,1.85,0,2.589
C249.756,80.146,246.574,81.552,242.948,81.552z"></path><path d="M281.569,69.712h-17.02v9.77c0,1.037-0.813,1.851-1.852,1.851c-1.034,0-1.85-0.813-1.85-1.851V57.725
c0-1.037,0.813-1.852,1.85-1.852c1.035,0,1.852,0.813,1.852,1.852v8.436h17.02v-8.436c0-1.037,0.813-1.852,1.853-1.852
c1.034,0,1.849,0.813,1.849,1.852v21.754c0,1.037-0.813,1.851-1.849,1.851c-1.037,0-1.853-0.813-1.853-1.851V69.712z"></path><path d="M308.758,57.503l10.507,20.646c0.223,0.443,0.445,1.036,0.445,1.554c0,1.036-0.668,1.628-1.702,1.628
c-0.741,0-1.481-0.222-2.001-1.258l-3.253-6.438h-13.547l-3.183,6.438c-0.517,1.036-1.256,1.258-1.994,1.258
c-1.037,0-1.702-0.593-1.702-1.628c0-0.519,0.22-1.109,0.442-1.554l10.506-20.646c0.668-1.405,2.002-1.628,2.74-1.628
C306.76,55.875,308.09,56.096,308.758,57.503z M300.985,70.083h9.988l-4.957-9.99L300.985,70.083z"></path><path d="M340.159,56.023c4.441,0,8.064,3.255,8.064,7.694c0,3.923-2.813,6.884-6.511,7.549l6.731,7.104
c0.664,0.666,0.889,1.85,0.146,2.516c-0.736,0.741-2.145,0.521-2.886-0.296l-8.729-9.176h-6.511v8.142
c0,1.034-0.815,1.774-1.854,1.774c-1.033,0-1.85-0.813-1.85-1.851V57.873c0-1.035,0.814-1.85,1.85-1.85H340.159z M330.468,59.575
v8.288h9.691c2.59,0,4.367-1.776,4.367-4.146c0-2.365-1.777-4.144-4.367-4.144L330.468,59.575L330.468,59.575z"></path><path d="M365.047,59.575h-9.249c-1.033,0-1.849-0.74-1.849-1.776c0-1.034,0.813-1.773,1.849-1.773h22.201
c1.037,0,1.852,0.74,1.852,1.773c0,1.037-0.813,1.776-1.852,1.776h-9.249V79.48c0,1.037-0.813,1.851-1.849,1.851
c-1.037,0-1.854-0.813-1.854-1.851V59.575z"></path><path d="M388.724,66.013c0-9.25,5.698-10.359,9.99-10.359c1.035,0,1.85,0.813,1.85,1.85
c0,1.036-0.813,1.851-1.85,1.851c-3.479,0-6.29,0.738-6.29,6.66v5.18c0,9.25-5.698,10.358-9.989,10.358
c-1.035,0-1.85-0.813-1.85-1.85s0.814-1.85,1.85-1.85c3.479,0,6.289-0.74,6.289-6.66V66.013z"></path><polygon fill="#8087E8" points="67.981,30.52 56.757,56.73 42.009,91.171 76.301,76.685 94.465,69.013 "></polygon><polygon fill="#30426B" points="73.7,62.25 76.302,76.685 94.466,69.013 "></polygon><polygon fill="#6699A1" points="67.981,30.52 73.7,62.251 94.465,69.013 "></polygon><polygon fill="#78758C" points="73.7,62.25 94.466,69.013 56.758,56.729 42.009,91.171 76.302,76.685 "></polygon><polygon fill="#A3EDBA" points="42.009,91.171 56.757,56.73 26.442,46.855 "></polygon><polygon fill="#6699A1" points="76.302,76.685 79.628,95.13 94.466,69.013 "></polygon><polygon fill="#8087E8" points="67.981,30.52 56.757,56.73 73.7,62.251"></polygon></symbol>
</defs></svg>
